<?xml version="1.0" encoding="UTF-8"?><svg id="Camada_1" xmlns="http://www.w3.org/2000/svg" viewBox="0 0 1812 404"><g id="logo_h"><g><path d="M1659.76,341.3c4.17-1.16,10.25-3.53,14.09-5.38,6.08-2.93,11.31-7.66,17.1-12.31,8.64,22.57,27.92,38.39,48.34,39,26.08,.79,44.25-10.6,52.17-22.5,4.89-7.36,8.97-25.12,9.77-29.43,2.97-16.07,3.69-33.12-.07-49.02-3.23-13.68-11-26.32-19.34-37.32-5.33-7.02-15.59-11.03-24.39-14.47-8.15-3.19-14.8,1.34-19.41,8.69-.66,1.05-2.92,1.17-4.47,1.58-16.7,4.42-34.8,26.8-40.26,41.57-3.16,8.55-5.36,26.95-8.84,35.37-2.53,6.13-6.95,10.34-9.93,13.91-5.8,6.95-14.3,11.97-23.51,13.24-14.22,1.96-23.62-8.47-27.06-24.28-2.12-9.76-2.55-19.91-3.57-29.9-1.76-17.18-1.84-34.72-5.54-51.47-3.47-15.73-14.45-21.48-30.63-19.97-15.07,1.41-26.45,10.13-36.53,20.34-8.44,8.55-15.87,18.1-24.44,28,10.05-59.56,19.74-117.98,29.86-176.33,2.55-14.68,4.9-29.74,10.36-43.43,3.56-8.92,4.93-15.85,.01-23.85-4.84-.53-10.17-6.12-19.13,2.11-16.34,15.01-22.47,31.17-30.58,51.66-26.75,67.63-41.62,138.24-51.05,210.15-3.55,27.03-19.92,44.41-44,54.72-16.01,6.86-25.66,.09-26.24-17.31-.31-9.37,.75-18.78,.38-28.15-.64-16.25-.48-32.74-3.31-48.65-2.91-16.35-18.18-23.35-33.75-17.41-4.79,1.83-10.18,4.04-13.38,7.73-13.79,15.93-26.94,32.42-40.15,48.84-3.24,4.02-5.85,8.55-8.5,12.46,4.48-26.09,9.02-52.07,13.36-78.08,1.22-7.29,.45-15.64-7.3-17.46-5.65-1.33-13.02,1.57-18.7,4.43-4.37,2.2-8.12,6.76-10.72,11.13-9.54,16.04-15.97,33.32-23.02,50.46l-15.77,42.8c-9.48,18.4-22.99,33.76-37.74,48.54-3.63,3.64-8.62,6.18-13.38,8.38-8.92,4.12-14.75,.1-15.82-8.83-.95-8-.48-16.35,.55-24.39,3.85-29.94,8.36-59.8,12.29-89.73,2.24-17.08-2.9-27.79-14.28-31.55-10.73-3.55-20.43,1.43-29.58,16.24-20.7,33.5-26.62,70.2-18.96,108.25,3.03,15.04,9.96,30.48,19.02,42.87,16.9,23.11,45.76,23.55,65.93,3.04,5.68-5.77,10.25-12.67,15.07-19.24,4.04-5.5,9.71-14.07,14.51-21.11-.23,4.3-.37,8.61-.25,13.09,.31,11.41,.51,23.13,3.31,34.05,1.42,5.54,7.67,11.28,13.19,13.96,7.16,3.49,14.33-.02,18.85-6.89,3.61-5.48,7.13-11.08,10.07-16.94,10.14-20.15,19.49-40.71,30.14-60.58,11.67-21.77,24.81-42.7,43.76-59.16,3.69-3.21,8.1-5.59,14.24-9.75-.05,7.59-.27,12.34-.08,17.08,.68,17.64-.85,35.77,2.71,52.83,8.44,40.44,42.13,51.49,74.55,25.76,6.19-4.91,11.83-10.52,19.26-17.19,.03,5.45-.07,9.13,.1,12.79,.7,14.91,.75,29.92,2.69,44.67,.6,4.57,5.67,10.6,10.04,12.15,6.18,2.19,11.35-1.7,14.19-8.78,4.76-11.9,9.99-23.72,16.2-34.92,19.88-35.86,40.28-71.46,70.15-100.33,3.95-3.82,9.08-6.42,15.52-10.86,1.27,10.63,2.04,18.5,3.18,26.32,2.79,19.18,4.04,38.81,9.06,57.4,6.39,23.64,22.63,35.27,45.95,33.67,4.03-.28,9.77-1.21,13.66-2.3Zm107.16-10.6c-5.88,8.83-14.69,11.36-24.65,9.06-9.89-2.29-14.31-10.34-14.01-19.18,1.06-30.88,12.18-58.19,31.45-83.37,12.27,10.1,15.69,22.96,17.97,36.19,3.5,20.36,.91,39.79-10.75,57.3Z"/><path d="M1075.3,242.22c-4.87-.87-9.17-5.05-13.69-7.8-19-11.56-31.62-9.85-46.54,6.52-3.28,3.6-6.2,7.54-9.28,11.33-.86-.08-1.72-.16-2.57-.24,1.19-16.15,2.42-32.29,3.55-48.44,.94-13.44-4.13-21.78-15.27-24.14-11.92-2.53-20.29,3.2-24.12,13.86-5.48,15.26-12.39,30.8-13.68,46.63-2.98,36.78-12.39,70.71-35.68,99.62-6.38,7.93-15.29,14.64-24.36,19.36-9.93,5.17-16.67,.97-18.21-10.27-1.43-10.44-1.49-21.15-1.24-31.72,.83-35.5,2.52-70.99,2.67-106.49,.02-5.3-5.29-13.21-10.14-15.36-7.93-3.5-13.56,2.79-16.34,10.5-4.1,11.34-8.04,22.73-12.67,35.85-7.3-18.33-18.21-30.38-37.29-32.36-33.41-3.48-58.99,16.71-74.46,51.41-1.01,2.27-3.18,7.79-5.62,20.05-1.97,9.94-1.7,18.24-.97,26.73,.64,7.38,3.07,13.56,5.19,19.62,12.21,35,42.64,42.52,69.77,17.31,2.68-2.49,5.13-5.28,7.36-8.18,9.72-12.71,19.32-25.51,30.08-39.76,.32,5.75-.06,9.84,.86,13.62,4.27,17.71,6.58,36.37,13.92,52.75,12,26.78,42.12,32.18,64.21,12.79,8.42-7.39,15.23-16.96,21.45-26.4,6.5-9.88,11.42-20.8,17.42-32,2.95,18.25,5.34,35.2,8.55,51.99,1.99,10.42,9.07,16.56,19.76,16.69,10.68,.12,17.52-5.62,19.91-16.27,.71-3.18,1.39-6.39,2.42-9.47,10.25-30.88,19.53-62.14,31.24-92.45,7.2-18.65,8.84-17.89,27.01-10.33,5.25,2.18,10.74,4.09,16.31,5.13,11.66,2.17,23.03,.94,32.16-7.35,2.29-2.08,2.24-6.73,3.27-10.2-3.49-.56-6.96-1.47-10.47-1.63-8.18-.37-16.53,.54-24.49-.88Zm-285.8,83.94c-3.09,2.62-6.3,5.23-9.8,7.23-13.93,7.97-20.6,4.21-20.69-11.66-.13-21.97,4.33-42.87,16.15-61.66,11.52-18.32,26.71-20.46,43.59-7.52,3.98,3.05,9.93,3.53,15.68,5.42-11.26,23.96-22.85,49.45-44.92,68.19Z"/><path d="M1170.75,181.4c11.91,.49,21.75-11.83,21.84-27.33,.07-11.98-10.15-22.53-22.23-22.94-13.84-.48-24.06,9.33-24.2,23.22-.14,13.63,11.57,26.52,24.59,27.06Z"/></g><path d="M228.07,180.15c-22.41,49.36-47.53,92.49-90.19,124.4-9.43,7.05-20.47,12.5-31.53,16.7-14.45,5.49-22.21-1.76-25.35-16.86-9.62-46.37,7.27-96.64,39.35-135.37,6.27-7.57,15.35-13.76,24.38-17.93,16.64-7.68,32.19-7.18,45.87,11.3,10.44,14.1,18.41,19.79,30.61,5.32,3.55-4.21,7.46-12.65,7.3-18.91-.46-17.66-9.43-34.13-22.1-46.46-33.21-32.31-75.94-27-108.72-9.92-39.58,20.62-62.94,54.34-77.3,95.32-15.51,44.24-17.71,88.44,2.86,131.61,10.88,22.84,27.81,40.17,54.66,43.77,17.85,2.39,34.29-2.74,49.5-11.85,27.86-16.69,48.01-41.33,67.78-66.24,9.28-11.7,26.87-36.22,26.87-36.22,0,0,3.91-6.17,3.76-5.68-1.6,5.16-2.84,18.55-3,23.84-1.22,39.97,9.54,79.87,20.26,102.31,11.32,23.68,27.56,46.04,42.11,23.18,4.32-6.79,5.1-20.51,6.05-31.63,2.37-27.83,4.27-53.97,12.68-83.33,9.85-34.38,19.84-62.8,37.93-94.04,9.42-16.27,18.45-29.9,31.57-43.56,8.37-8.72,20.54-15.49,26.29-13.24,5.74,2.25,6.24,11.36,6.57,17.19,1.73,30.59,2.58,61.23,3.67,91.85,.75,21.1-.15,42.56,9.17,62.27,13.25,28.02,35.53,30.29,56.44,6.07,16.57-19.2,31.13-37.75,46.55-57.86,5.72-7.46,14.77-17.84,23.68-25.34,6.78,15.81,11.92,29.3,18.27,42.21,9.93,20.19,18.83,41.23,31.42,59.71,32.42,47.59,87.27,50.33,126.15,7.91,22.18-24.2,31.83-50.16,40.64-81.72l.12-2.11c-8.03-15.8-18.07-16.47-27.79-1.5-14.48,22.31-20.13,42.76-41.18,59.38-28.17,22.23-45.72,19.26-62.74-12.15-8.7-16.06-15.13-33.33-22.84-49.94-5.04-10.85-10.13-21.71-15.91-32.17-19.7-35.66-53.64-42.52-83.27-14.51-19.56,18.49-35.54,40.75-53.44,61.69-.1-7.56-.19-16.27-.34-24.98-.48-28.86-.09-57.78-1.93-86.57-.74-11.57-4.93-23.51-10.03-34.1-16.16-33.54-51.54-36.01-77.97-16.63-17.66,12.95-32.26,30.06-48.1,45.45,1.12-18.7,1.66-37.45,1.88-56.17,.15-12.54-8.81-21.16-20.55-23.42-10.48-2.02-22.76,4.3-27.57,15.35-8.41,19.35-16.2,38.97-24.12,58.53-4.57,11.28-13.38,33.97-18.41,45.05Z"/></g></svg>