<?xml version="1.0" encoding="UTF-8"?>
<!DOCTYPE svg PUBLIC "-//W3C//DTD SVG 1.1//EN" "http://www.w3.org/Graphics/SVG/1.1/DTD/svg11.dtd">
<svg xmlns="http://www.w3.org/2000/svg" version="1.1" width="512px" height="512px" style="shape-rendering:geometricPrecision; text-rendering:geometricPrecision; image-rendering:optimizeQuality; fill-rule:evenodd; clip-rule:evenodd" xmlns:xlink="http://www.w3.org/1999/xlink">
<g><path style="opacity:0.994" fill="#e2e2e2" d="M 83.5,-0.5 C 176.5,-0.5 269.5,-0.5 362.5,-0.5C 278.084,85.4169 193.084,170.917 107.5,256C 132.035,280.368 156.368,304.868 180.5,329.5C 121.417,390.083 61.7506,450.25 1.5,510C 0.905578,510.464 0.238911,510.631 -0.5,510.5C -0.5,366.5 -0.5,222.5 -0.5,78.5C 8.09996,31.5674 36.1,5.23404 83.5,-0.5 Z"/></g>
<g><path style="opacity:0.997" fill="#2da9e0" d="M 362.5,-0.5 C 412.167,-0.5 461.833,-0.5 511.5,-0.5C 511.5,-0.166667 511.5,0.166667 511.5,0.5C 425.785,85.2153 340.785,170.549 256.5,256.5C 255.761,256.369 255.094,256.536 254.5,257C 230.299,281.368 205.965,305.535 181.5,329.5C 181.167,329.5 180.833,329.5 180.5,329.5C 156.368,304.868 132.035,280.368 107.5,256C 193.084,170.917 278.084,85.4169 362.5,-0.5 Z"/></g>
<g><path style="opacity:0.996" fill="#b2b1b2" d="M 511.5,0.5 C 511.5,170.5 511.5,340.5 511.5,510.5C 425.882,426.549 340.882,341.882 256.5,256.5C 340.785,170.549 425.785,85.2153 511.5,0.5 Z"/></g>
<g><path style="opacity:1" fill="#0f70b6" d="M 256.5,256.5 C 340.882,341.882 425.882,426.549 511.5,510.5C 511.5,510.833 511.5,511.167 511.5,511.5C 461.833,511.5 412.167,511.5 362.5,511.5C 302.167,450.833 241.833,390.167 181.5,329.5C 205.965,305.535 230.299,281.368 254.5,257C 255.094,256.536 255.761,256.369 256.5,256.5 Z"/></g>
<g><path style="opacity:1" fill="#b6b5b6" d="M 180.5,329.5 C 180.833,329.5 181.167,329.5 181.5,329.5C 241.833,390.167 302.167,450.833 362.5,511.5C 241.5,511.5 120.5,511.5 -0.5,511.5C -0.5,511.167 -0.5,510.833 -0.5,510.5C 0.238911,510.631 0.905578,510.464 1.5,510C 61.7506,450.25 121.417,390.083 180.5,329.5 Z"/></g>
</svg>
