<?xml version="1.0" encoding="UTF-8"?><svg id="Camada_1" xmlns="http://www.w3.org/2000/svg" viewBox="0 0 908 411"><defs><style>.cls-1{fill:#fff;}</style></defs><path id="simbolo" class="cls-1" d="M264.47,144.12c-26.97,59.42-57.21,111.34-108.57,149.75-11.35,8.49-24.64,15.05-37.95,20.1-17.4,6.61-26.74-2.12-30.51-20.29-11.58-55.82,8.76-116.33,47.36-162.95,7.55-9.11,18.48-16.57,29.34-21.58,20.03-9.24,38.75-8.64,55.22,13.6,12.57,16.97,22.16,23.82,36.84,6.4,4.27-5.07,8.98-15.23,8.78-22.76-.55-21.25-11.35-41.09-26.6-55.93-39.97-38.9-91.41-32.5-130.87-11.94C59.87,63.36,31.76,103.95,14.46,153.27c-18.67,53.25-21.31,106.46,3.44,158.43,13.1,27.49,33.48,48.36,65.8,52.69,21.48,2.88,41.27-3.29,59.59-14.27,33.54-20.1,57.8-49.75,81.58-79.74,11.17-14.08,32.35-43.6,32.35-43.6,0,0,4.71-7.43,4.53-6.84-1.93,6.21-3.42,22.33-3.61,28.69-1.47,48.11,11.48,96.15,24.39,123.16,13.62,28.5,33.18,55.42,50.69,27.9,5.2-8.18,6.14-24.69,7.28-38.07,2.86-33.5,5.14-64.97,15.27-100.3,11.86-41.38,23.89-75.6,45.65-113.2,11.34-19.58,22.21-35.99,38-52.44,10.07-10.49,24.73-18.65,31.65-15.94,6.91,2.71,7.51,13.67,7.91,20.69,2.09,36.82,3.11,73.7,4.42,110.57,.9,25.4-.19,51.24,11.03,74.95,15.95,33.73,42.77,36.46,67.94,7.3,19.94-23.11,37.47-45.44,56.04-69.65,6.89-8.98,17.78-21.47,28.51-30.5,8.17,19.03,14.35,35.27,21.99,50.81,11.95,24.31,22.67,49.63,37.82,71.87,39.03,57.29,105.05,60.58,151.85,9.52,26.7-29.13,38.31-60.38,48.92-98.37l.14-2.54c-9.67-19.02-21.75-19.82-33.45-1.81-17.44,26.85-24.23,51.47-49.57,71.47-33.91,26.76-55.03,23.19-75.53-14.62-10.48-19.33-18.21-40.12-27.5-60.11-6.07-13.06-12.19-26.13-19.15-38.73-23.72-42.93-64.57-51.18-100.23-17.46-23.55,22.26-42.79,49.05-64.33,74.26-.12-9.1-.23-19.58-.4-30.06-.58-34.75-.11-69.56-2.32-104.2-.89-13.92-5.94-28.3-12.08-41.05-19.46-40.37-62.04-43.35-93.86-20.02-21.26,15.58-38.84,36.18-57.9,54.71,1.35-22.51,1.99-45.08,2.26-67.62,.18-15.1-10.61-25.47-24.74-28.19-12.61-2.43-27.4,5.18-33.18,18.48-10.12,23.29-19.5,46.91-29.04,70.46-5.5,13.58-16.11,40.9-22.16,54.23Z"/></svg>